<?xml version="1.0" standalone="no"?><!DOCTYPE svg PUBLIC "-//W3C//DTD SVG 1.1//EN" "http://www.w3.org/Graphics/SVG/1.1/DTD/svg11.dtd"><svg t="1634287359240" class="icon" viewBox="0 0 1024 1024" version="1.1" xmlns="http://www.w3.org/2000/svg" p-id="3896" xmlns:xlink="http://www.w3.org/1999/xlink" width="320" height="320"><defs><style type="text/css"></style></defs><path d="M307.2 327.68c0-113.11104 91.68896-204.8 204.8-204.8s204.8 91.68896 204.8 204.8h143.36a40.96 40.96 0 0 1 40.7552 45.07648l-43.1104 344.18688A204.8 204.8 0 0 1 654.0288 901.12h-284.0576a204.8 204.8 0 0 1-203.776-184.17664L123.0848 372.736A40.96 40.96 0 0 1 163.84 327.68h143.36z m81.92 0h245.76a122.88 122.88 0 1 0-245.76 0z m278.528 512a131.072 131.072 0 0 0 131.072-131.072 32.768 32.768 0 1 0-65.536 0 65.536 65.536 0 0 1-65.536 65.536 32.768 32.768 0 1 0 0 65.536z" p-id="3897" fill="#fccb46"></path></svg>